<?xml version="1.0" standalone="no"?>
<svg xmlns="http://www.w3.org/2000/svg" viewBox="0 0 1440 320">
<path fill="#a7ff83" fill-opacity="1" d="M0,96L21.8,122.7C43.6,149,87,203,131,208C174.5,213,218,171,262,181.3C305.5,192,349,256,393,245.3C436.4,235,480,149,524,133.3C567.3,117,611,171,655,208C698.2,245,742,267,785,234.7C829.1,203,873,117,916,74.7C960,32,1004,32,1047,69.3C1090.9,107,1135,181,1178,186.7C1221.8,192,1265,128,1309,112C1352.7,96,1396,128,1418,144L1440,160L1440,320L1418.2,320C1396.4,320,1353,320,1309,320C1265.5,320,1222,320,1178,320C1134.5,320,1091,320,1047,320C1003.6,320,960,320,916,320C872.7,320,829,320,785,320C741.8,320,698,320,655,320C610.9,320,567,320,524,320C480,320,436,320,393,320C349.1,320,305,320,262,320C218.2,320,175,320,131,320C87.3,320,44,320,22,320L0,320Z"></path>
</svg>